<svg width="180" height="37" viewBox="0 0 180 37" fill="none" xmlns="http://www.w3.org/2000/svg">
<path d="M10.2479 36.2881C8.45592 36.2881 6.79192 35.9521 5.25592 35.2801C3.71992 34.6081 2.50392 33.5201 1.60792 32.0161C0.711916 30.5121 0.263916 28.5121 0.263916 26.0161V11.1841C0.263916 8.68811 0.727916 6.68811 1.65592 5.18411C2.58392 3.68011 3.79992 2.59211 5.30392 1.92011C6.83992 1.24811 8.51992 0.912109 10.3439 0.912109C12.4559 0.912109 14.2479 1.28011 15.7199 2.01611C17.1919 2.75211 18.3119 3.72811 19.0799 4.94411C19.8799 6.16011 20.2799 7.50411 20.2799 8.97611C20.2799 9.74411 20.1359 10.2561 19.8479 10.5121C19.5919 10.7361 19.2079 10.8481 18.6959 10.8481C18.1199 10.8481 17.7039 10.7361 17.4479 10.5121C17.2239 10.2561 17.0959 9.96811 17.0639 9.64811C17.0639 9.13611 16.9679 8.56011 16.7759 7.92011C16.6159 7.24811 16.2959 6.60811 15.8159 6.00011C15.3679 5.36011 14.6959 4.84811 13.7999 4.46411C12.9359 4.04811 11.7999 3.84011 10.3919 3.84011C8.15192 3.84011 6.43992 4.44811 5.25592 5.66411C4.07192 6.84811 3.47992 8.68811 3.47992 11.1841V26.0161C3.47992 28.5441 4.07192 30.4001 5.25592 31.5841C6.47192 32.7681 8.23192 33.3601 10.5359 33.3601C11.9759 33.3601 13.1119 33.1681 13.9439 32.7841C14.7759 32.3681 15.3999 31.8721 15.8159 31.2961C16.2319 30.6881 16.5199 30.0481 16.6799 29.3761C16.8719 28.6721 16.9999 28.0321 17.0639 27.4561C17.1279 27.0401 17.2719 26.7361 17.4959 26.5441C17.7519 26.3201 18.1359 26.2081 18.6479 26.2081C19.1919 26.2081 19.5919 26.3521 19.8479 26.6401C20.1359 26.8961 20.2799 27.4081 20.2799 28.1761C20.2799 29.6161 19.8799 30.9601 19.0799 32.2081C18.2799 33.4241 17.1279 34.4161 15.6239 35.1841C14.1519 35.9201 12.3599 36.2881 10.2479 36.2881Z" fill="white"/>
<path d="M30.0472 36.3361C28.2232 36.3361 26.6712 35.8241 25.3912 34.8001C24.1432 33.7441 23.5192 32.1441 23.5192 30.0001C23.5192 28.2401 23.9832 26.8961 24.9112 25.9681C25.8712 25.0081 27.1832 24.3521 28.8472 24.0001C30.5432 23.6161 32.4952 23.4241 34.7032 23.4241H37.1512V22.3201C37.1512 21.2641 36.9592 20.2401 36.5752 19.2481C36.2232 18.2241 35.6312 17.3921 34.7992 16.7521C33.9992 16.0801 32.8952 15.7441 31.4872 15.7441C30.4312 15.7441 29.5672 15.8561 28.8952 16.0801C28.2232 16.3041 27.6952 16.5441 27.3112 16.8001C26.9272 17.0241 26.6072 17.1361 26.3512 17.1361C25.9672 17.1361 25.6472 16.9441 25.3912 16.5601C25.1672 16.1761 25.0552 15.8241 25.0552 15.5041C25.0552 15.0561 25.3912 14.6561 26.0632 14.3041C26.7352 13.9201 27.5672 13.6161 28.5592 13.3921C29.5832 13.1361 30.5912 13.0081 31.5832 13.0081C33.7272 13.0081 35.4232 13.4561 36.6712 14.3521C37.9512 15.2161 38.8632 16.3521 39.4072 17.7601C39.9832 19.1681 40.2712 20.6721 40.2712 22.2721V34.7521C40.2712 35.1041 40.1272 35.4081 39.8392 35.6641C39.5832 35.8881 39.2152 36.0001 38.7352 36.0001C38.3512 36.0001 37.9992 35.8881 37.6792 35.6641C37.3912 35.4081 37.2472 35.1041 37.2472 34.7521V32.6401C36.4472 33.6001 35.4552 34.4641 34.2712 35.2321C33.0872 35.9681 31.6792 36.3361 30.0472 36.3361ZM30.8152 33.6961C31.8712 33.6961 32.8792 33.4241 33.8392 32.8801C34.7992 32.3361 35.5832 31.6801 36.1912 30.9121C36.8312 30.1121 37.1512 29.3601 37.1512 28.6561V25.5841H35.1352C33.6952 25.5841 32.3192 25.6801 31.0072 25.8721C29.7272 26.0321 28.6712 26.4001 27.8392 26.9761C27.0392 27.5521 26.6392 28.4641 26.6392 29.7121C26.6392 31.0881 27.0392 32.0961 27.8392 32.7361C28.6712 33.3761 29.6632 33.6961 30.8152 33.6961Z" fill="white"/>
<path d="M52.246 36.3361C50.742 36.3361 49.414 36.1441 48.262 35.7601C47.142 35.3761 46.262 34.9281 45.622 34.4161C45.014 33.8721 44.71 33.3601 44.71 32.8801C44.71 32.6561 44.758 32.4481 44.854 32.2561C44.95 32.0321 45.078 31.8401 45.238 31.6801C45.43 31.5201 45.622 31.4401 45.814 31.4401C46.166 31.4401 46.55 31.6321 46.966 32.0161C47.414 32.3681 48.022 32.7361 48.79 33.1201C49.59 33.5041 50.71 33.6961 52.15 33.6961C53.974 33.6961 55.254 33.3601 55.99 32.6881C56.726 31.9841 57.094 31.1841 57.094 30.2881C57.094 29.2321 56.806 28.4161 56.23 27.8401C55.686 27.2321 54.95 26.7681 54.022 26.4481C53.126 26.1281 52.166 25.8241 51.142 25.5361C50.15 25.2481 49.19 24.8961 48.262 24.4801C47.366 24.0641 46.63 23.4721 46.054 22.7041C45.51 21.9041 45.238 20.8481 45.238 19.5361C45.238 18.5121 45.494 17.5041 46.006 16.5121C46.518 15.5201 47.318 14.6881 48.406 14.0161C49.526 13.3441 50.998 13.0081 52.822 13.0081C53.878 13.0081 54.902 13.1201 55.894 13.3441C56.886 13.5681 57.686 13.8721 58.294 14.2561C58.934 14.6081 59.254 14.9921 59.254 15.4081C59.254 15.5361 59.19 15.7441 59.062 16.0321C58.966 16.2881 58.822 16.5121 58.63 16.7041C58.438 16.8961 58.214 16.9921 57.958 16.9921C57.702 16.9921 57.35 16.8801 56.902 16.6561C56.486 16.4321 55.942 16.2081 55.27 15.9841C54.598 15.7601 53.798 15.6481 52.87 15.6481C51.718 15.6481 50.79 15.8561 50.086 16.2721C49.382 16.6881 48.87 17.1841 48.55 17.7601C48.23 18.3361 48.07 18.8961 48.07 19.4401C48.07 20.3361 48.358 21.0241 48.934 21.5041C49.51 21.9841 50.246 22.3841 51.142 22.7041C52.07 22.9921 53.03 23.2801 54.022 23.5681C55.046 23.8241 56.006 24.1921 56.902 24.6721C57.83 25.1521 58.566 25.8241 59.11 26.6881C59.686 27.5521 59.974 28.7041 59.974 30.1441C59.974 32.0321 59.302 33.5361 57.958 34.6561C56.614 35.7761 54.71 36.3361 52.246 36.3361Z" fill="white"/>
<path d="M70.8085 36.3361C69.3045 36.3361 67.9765 36.1441 66.8245 35.7601C65.7045 35.3761 64.8245 34.9281 64.1845 34.4161C63.5765 33.8721 63.2725 33.3601 63.2725 32.8801C63.2725 32.6561 63.3205 32.4481 63.4165 32.2561C63.5125 32.0321 63.6405 31.8401 63.8005 31.6801C63.9925 31.5201 64.1845 31.4401 64.3765 31.4401C64.7285 31.4401 65.1125 31.6321 65.5285 32.0161C65.9765 32.3681 66.5845 32.7361 67.3525 33.1201C68.1525 33.5041 69.2725 33.6961 70.7125 33.6961C72.5365 33.6961 73.8165 33.3601 74.5525 32.6881C75.2885 31.9841 75.6565 31.1841 75.6565 30.2881C75.6565 29.2321 75.3685 28.4161 74.7925 27.8401C74.2485 27.2321 73.5125 26.7681 72.5845 26.4481C71.6885 26.1281 70.7285 25.8241 69.7045 25.5361C68.7125 25.2481 67.7525 24.8961 66.8245 24.4801C65.9285 24.0641 65.1925 23.4721 64.6165 22.7041C64.0725 21.9041 63.8005 20.8481 63.8005 19.5361C63.8005 18.5121 64.0565 17.5041 64.5685 16.5121C65.0805 15.5201 65.8805 14.6881 66.9685 14.0161C68.0885 13.3441 69.5605 13.0081 71.3845 13.0081C72.4405 13.0081 73.4645 13.1201 74.4565 13.3441C75.4485 13.5681 76.2485 13.8721 76.8565 14.2561C77.4965 14.6081 77.8165 14.9921 77.8165 15.4081C77.8165 15.5361 77.7525 15.7441 77.6245 16.0321C77.5285 16.2881 77.3845 16.5121 77.1925 16.7041C77.0005 16.8961 76.7765 16.9921 76.5205 16.9921C76.2645 16.9921 75.9125 16.8801 75.4645 16.6561C75.0485 16.4321 74.5045 16.2081 73.8325 15.9841C73.1605 15.7601 72.3605 15.6481 71.4325 15.6481C70.2805 15.6481 69.3525 15.8561 68.6485 16.2721C67.9445 16.6881 67.4325 17.1841 67.1125 17.7601C66.7925 18.3361 66.6325 18.8961 66.6325 19.4401C66.6325 20.3361 66.9205 21.0241 67.4965 21.5041C68.0725 21.9841 68.8085 22.3841 69.7045 22.7041C70.6325 22.9921 71.5925 23.2801 72.5845 23.5681C73.6085 23.8241 74.5685 24.1921 75.4645 24.6721C76.3925 25.1521 77.1285 25.8241 77.6725 26.6881C78.2485 27.5521 78.5365 28.7041 78.5365 30.1441C78.5365 32.0321 77.8645 33.5361 76.5205 34.6561C75.1765 35.7761 73.2725 36.3361 70.8085 36.3361Z" fill="white"/>
<path d="M88.219 36.3361C86.395 36.3361 84.843 35.8241 83.563 34.8001C82.315 33.7441 81.691 32.1441 81.691 30.0001C81.691 28.2401 82.155 26.8961 83.083 25.9681C84.043 25.0081 85.355 24.3521 87.019 24.0001C88.715 23.6161 90.667 23.4241 92.875 23.4241H95.323V22.3201C95.323 21.2641 95.131 20.2401 94.747 19.2481C94.395 18.2241 93.803 17.3921 92.971 16.7521C92.171 16.0801 91.067 15.7441 89.659 15.7441C88.603 15.7441 87.739 15.8561 87.067 16.0801C86.395 16.3041 85.867 16.5441 85.483 16.8001C85.099 17.0241 84.779 17.1361 84.523 17.1361C84.139 17.1361 83.819 16.9441 83.563 16.5601C83.339 16.1761 83.227 15.8241 83.227 15.5041C83.227 15.0561 83.563 14.6561 84.235 14.3041C84.907 13.9201 85.739 13.6161 86.731 13.3921C87.755 13.1361 88.763 13.0081 89.755 13.0081C91.899 13.0081 93.595 13.4561 94.843 14.3521C96.123 15.2161 97.035 16.3521 97.579 17.7601C98.155 19.1681 98.443 20.6721 98.443 22.2721V34.7521C98.443 35.1041 98.299 35.4081 98.011 35.6641C97.755 35.8881 97.387 36.0001 96.907 36.0001C96.523 36.0001 96.171 35.8881 95.851 35.6641C95.563 35.4081 95.419 35.1041 95.419 34.7521V32.6401C94.619 33.6001 93.627 34.4641 92.443 35.2321C91.259 35.9681 89.851 36.3361 88.219 36.3361ZM88.987 33.6961C90.043 33.6961 91.051 33.4241 92.011 32.8801C92.971 32.3361 93.755 31.6801 94.363 30.9121C95.003 30.1121 95.323 29.3601 95.323 28.6561V25.5841H93.307C91.867 25.5841 90.491 25.6801 89.179 25.8721C87.899 26.0321 86.843 26.4001 86.011 26.9761C85.211 27.5521 84.811 28.4641 84.811 29.7121C84.811 31.0881 85.211 32.0961 86.011 32.7361C86.843 33.3761 87.835 33.6961 88.987 33.6961Z" fill="white"/>
<path d="M113.202 36.3361C111.506 36.3361 109.954 35.9201 108.546 35.0881C107.17 34.2561 106.066 33.1521 105.234 31.7761C104.434 30.3681 104.034 28.8801 104.034 27.3121V14.5441C104.034 14.2241 104.194 13.9361 104.514 13.6801C104.834 13.4241 105.202 13.2961 105.618 13.2961C106.034 13.2961 106.386 13.4241 106.674 13.6801C106.994 13.9361 107.154 14.2241 107.154 14.5441V27.3121C107.154 28.3681 107.426 29.3601 107.97 30.2881C108.514 31.2161 109.234 31.9841 110.13 32.5921C111.026 33.1681 112.034 33.4561 113.154 33.4561C114.306 33.4561 115.33 33.1681 116.226 32.5921C117.122 32.0161 117.826 31.2641 118.338 30.3361C118.882 29.3761 119.154 28.3681 119.154 27.3121V14.4961C119.154 14.1441 119.314 13.8561 119.634 13.6321C119.954 13.4081 120.322 13.2961 120.738 13.2961C121.218 13.2961 121.586 13.4081 121.842 13.6321C122.13 13.8561 122.274 14.1441 122.274 14.4961V27.3121C122.274 28.9441 121.858 30.4481 121.026 31.8241C120.226 33.1681 119.122 34.2561 117.714 35.0881C116.338 35.9201 114.834 36.3361 113.202 36.3361Z" fill="white"/>
<path d="M133.078 36.3361C131.254 36.3361 129.702 35.8241 128.422 34.8001C127.174 33.7441 126.55 32.1441 126.55 30.0001C126.55 28.2401 127.014 26.8961 127.942 25.9681C128.902 25.0081 130.214 24.3521 131.878 24.0001C133.574 23.6161 135.526 23.4241 137.734 23.4241H140.182V22.3201C140.182 21.2641 139.99 20.2401 139.606 19.2481C139.254 18.2241 138.662 17.3921 137.83 16.7521C137.03 16.0801 135.926 15.7441 134.518 15.7441C133.462 15.7441 132.598 15.8561 131.926 16.0801C131.254 16.3041 130.726 16.5441 130.342 16.8001C129.958 17.0241 129.638 17.1361 129.382 17.1361C128.998 17.1361 128.678 16.9441 128.422 16.5601C128.198 16.1761 128.086 15.8241 128.086 15.5041C128.086 15.0561 128.422 14.6561 129.094 14.3041C129.766 13.9201 130.598 13.6161 131.59 13.3921C132.614 13.1361 133.622 13.0081 134.614 13.0081C136.758 13.0081 138.454 13.4561 139.702 14.3521C140.982 15.2161 141.894 16.3521 142.438 17.7601C143.014 19.1681 143.302 20.6721 143.302 22.2721V34.7521C143.302 35.1041 143.158 35.4081 142.87 35.6641C142.614 35.8881 142.246 36.0001 141.766 36.0001C141.382 36.0001 141.03 35.8881 140.71 35.6641C140.422 35.4081 140.278 35.1041 140.278 34.7521V32.6401C139.478 33.6001 138.486 34.4641 137.302 35.2321C136.118 35.9681 134.71 36.3361 133.078 36.3361ZM133.846 33.6961C134.902 33.6961 135.91 33.4241 136.87 32.8801C137.83 32.3361 138.614 31.6801 139.222 30.9121C139.862 30.1121 140.182 29.3601 140.182 28.6561V25.5841H138.166C136.726 25.5841 135.35 25.6801 134.038 25.8721C132.758 26.0321 131.702 26.4001 130.87 26.9761C130.07 27.5521 129.67 28.4641 129.67 29.7121C129.67 31.0881 130.07 32.0961 130.87 32.7361C131.702 33.3761 132.694 33.6961 133.846 33.6961Z" fill="white"/>
<path d="M150.621 36.0001C150.205 36.0001 149.837 35.8721 149.517 35.6161C149.229 35.3601 149.085 35.0721 149.085 34.7521V14.4961C149.085 14.1121 149.229 13.8241 149.517 13.6321C149.837 13.4081 150.205 13.2961 150.621 13.2961C151.037 13.2961 151.389 13.4081 151.677 13.6321C151.965 13.8241 152.109 14.1121 152.109 14.4961V16.8481C152.461 16.1761 152.941 15.5521 153.549 14.9761C154.157 14.4001 154.877 13.9361 155.709 13.5841C156.541 13.2001 157.485 13.0081 158.541 13.0081H160.221C160.573 13.0081 160.861 13.1521 161.085 13.4401C161.341 13.7281 161.469 14.0641 161.469 14.4481C161.469 14.8641 161.341 15.2161 161.085 15.5041C160.861 15.7601 160.573 15.8881 160.221 15.8881H158.541C157.485 15.8881 156.461 16.1761 155.469 16.7521C154.509 17.3281 153.725 18.1281 153.117 19.1521C152.509 20.1761 152.205 21.4241 152.205 22.8961V34.7521C152.205 35.0721 152.045 35.3601 151.725 35.6161C151.437 35.8721 151.069 36.0001 150.621 36.0001Z" fill="white"/>
<path d="M168.891 36.3361C167.067 36.3361 165.515 35.8241 164.235 34.8001C162.987 33.7441 162.363 32.1441 162.363 30.0001C162.363 28.2401 162.827 26.8961 163.755 25.9681C164.715 25.0081 166.027 24.3521 167.691 24.0001C169.387 23.6161 171.339 23.4241 173.547 23.4241H175.995V22.3201C175.995 21.2641 175.803 20.2401 175.419 19.2481C175.067 18.2241 174.475 17.3921 173.643 16.7521C172.843 16.0801 171.739 15.7441 170.331 15.7441C169.275 15.7441 168.411 15.8561 167.739 16.0801C167.067 16.3041 166.539 16.5441 166.155 16.8001C165.771 17.0241 165.451 17.1361 165.195 17.1361C164.811 17.1361 164.491 16.9441 164.235 16.5601C164.011 16.1761 163.899 15.8241 163.899 15.5041C163.899 15.0561 164.235 14.6561 164.907 14.3041C165.579 13.9201 166.411 13.6161 167.403 13.3921C168.427 13.1361 169.435 13.0081 170.427 13.0081C172.571 13.0081 174.267 13.4561 175.515 14.3521C176.795 15.2161 177.707 16.3521 178.251 17.7601C178.827 19.1681 179.115 20.6721 179.115 22.2721V34.7521C179.115 35.1041 178.971 35.4081 178.683 35.6641C178.427 35.8881 178.059 36.0001 177.579 36.0001C177.195 36.0001 176.843 35.8881 176.523 35.6641C176.235 35.4081 176.091 35.1041 176.091 34.7521V32.6401C175.291 33.6001 174.299 34.4641 173.115 35.2321C171.931 35.9681 170.523 36.3361 168.891 36.3361ZM169.659 33.6961C170.715 33.6961 171.723 33.4241 172.683 32.8801C173.643 32.3361 174.427 31.6801 175.035 30.9121C175.675 30.1121 175.995 29.3601 175.995 28.6561V25.5841H173.979C172.539 25.5841 171.163 25.6801 169.851 25.8721C168.571 26.0321 167.515 26.4001 166.683 26.9761C165.883 27.5521 165.483 28.4641 165.483 29.7121C165.483 31.0881 165.883 32.0961 166.683 32.7361C167.515 33.3761 168.507 33.6961 169.659 33.6961Z" fill="white"/>
</svg>
