<svg width="32" height="32" viewBox="0 0 32 32" fill="none" xmlns="http://www.w3.org/2000/svg">
<path d="M16.3333 1C7.86133 1 1 7.86133 1 16.3333C1 23.1187 5.38933 28.8493 11.484 30.88C12.2507 31.0147 12.5373 30.5547 12.5373 30.152C12.5373 29.788 12.5187 28.5813 12.5187 27.296C8.66667 28.0053 7.67067 26.3573 7.364 25.496C7.19067 25.0547 6.444 23.6933 5.79067 23.3293C5.25467 23.0413 4.488 22.332 5.772 22.3133C6.98 22.2947 7.84267 23.4253 8.13067 23.8853C9.51067 26.2053 11.7147 25.552 12.596 25.1493C12.7293 24.1533 13.132 23.4827 13.5733 23.0987C10.1613 22.716 6.59733 21.3933 6.59733 15.528C6.59733 13.8613 7.19067 12.4813 8.168 11.408C8.01467 11.024 7.47867 9.452 8.32133 7.344C8.32133 7.344 9.60533 6.94133 12.5387 8.916C13.7653 8.57067 15.068 8.39867 16.372 8.39867C17.6747 8.39867 18.9787 8.572 20.2053 8.916C23.1387 6.92267 24.4213 7.344 24.4213 7.344C25.2653 9.452 24.728 11.024 24.5747 11.408C25.552 12.4813 26.1467 13.8413 26.1467 15.528C26.1467 21.412 22.5627 22.7147 19.1507 23.0987C19.7067 23.5787 20.1853 24.4987 20.1853 25.936C20.1853 27.9867 20.1667 29.6347 20.1667 30.152C20.1667 30.5547 20.4547 31.0347 21.22 30.8813C27.2787 28.8493 31.6667 23.0987 31.6667 16.3333C31.6667 7.86133 24.8053 1 16.3333 1Z" fill="#D1D1D1"/>
</svg>
