<svg width="32" height="32" viewBox="0 0 32 32" fill="none" xmlns="http://www.w3.org/2000/svg">
<path d="M27.3332 2.66699H4.6665C4.13607 2.66699 3.62736 2.87771 3.25229 3.25278C2.87722 3.62785 2.6665 4.13656 2.6665 4.66699V27.3337C2.6665 27.8641 2.87722 28.3728 3.25229 28.7479C3.62736 29.1229 4.13607 29.3337 4.6665 29.3337H27.3332C27.8636 29.3337 28.3723 29.1229 28.7474 28.7479C29.1225 28.3728 29.3332 27.8641 29.3332 27.3337V4.66699C29.3332 4.13656 29.1225 3.62785 28.7474 3.25278C28.3723 2.87771 27.8636 2.66699 27.3332 2.66699ZM10.6665 25.3337H6.6665V13.3337H10.6665V25.3337ZM8.6665 11.0003C8.20808 10.9872 7.76368 10.8393 7.38884 10.5751C7.01399 10.3109 6.72532 9.94204 6.5589 9.51469C6.39247 9.08735 6.35567 8.62043 6.45309 8.17229C6.55051 7.72414 6.77783 7.31464 7.10665 6.99496C7.43548 6.67527 7.85121 6.45957 8.30192 6.37481C8.75263 6.29005 9.21833 6.33999 9.64082 6.51838C10.0633 6.69678 10.4239 6.99572 10.6774 7.37786C10.931 7.76 11.0663 8.20838 11.0665 8.66699C11.056 9.29413 10.7976 9.89159 10.3479 10.3288C9.89819 10.766 9.29368 11.0075 8.6665 11.0003ZM25.3332 25.3337H21.3332V19.0137C21.3332 17.1203 20.5332 16.4403 19.4932 16.4403C19.1882 16.4606 18.8903 16.541 18.6166 16.6767C18.3428 16.8125 18.0985 17.001 17.8978 17.2315C17.6971 17.4619 17.5439 17.7297 17.447 18.0196C17.3501 18.3094 17.3114 18.6155 17.3332 18.9203C17.3266 18.9824 17.3266 19.0449 17.3332 19.107V25.3337H13.3332V13.3337H17.1998V15.067C17.5899 14.4737 18.1257 13.9904 18.7561 13.6636C19.3864 13.3367 20.0902 13.1772 20.7998 13.2003C22.8665 13.2003 25.2798 14.347 25.2798 18.0803L25.3332 25.3337Z" fill="#D1D1D1"/>
</svg>
